<svg width="148" height="181" viewBox="0 0 148 181" fill="none" xmlns="http://www.w3.org/2000/svg">
<path d="M32.3494 91.53C30.4027 91.53 28.8294 91.0233 27.6294 90.01C26.456 89.0233 25.8694 87.7167 25.8694 86.09C25.8694 85.0767 26.1094 84.1433 26.5894 83.29C27.0694 82.4367 27.7227 81.77 28.5494 81.29C29.376 80.7833 30.2827 80.53 31.2694 80.53C32.2827 80.53 33.096 80.7833 33.7094 81.29C34.3494 81.7967 34.6694 82.4633 34.6694 83.29C34.6694 83.93 34.5227 84.4367 34.2294 84.81C33.9894 84.49 33.656 84.2367 33.2294 84.05C32.8294 83.8633 32.4027 83.77 31.9494 83.77C31.1494 83.77 30.496 84.0367 29.9894 84.57C29.4827 85.1033 29.2294 85.7967 29.2294 86.65C29.2294 87.5033 29.4694 88.1967 29.9494 88.73C30.456 89.2633 31.0827 89.53 31.8294 89.53C32.7627 89.53 33.5627 89.1167 34.2294 88.29C34.896 87.4633 35.4027 86.2367 35.7494 84.61L37.7494 75.77H37.5894C36.8694 76.7833 35.9894 77.5567 34.9494 78.09C33.936 78.6233 32.816 78.89 31.5894 78.89C30.0427 78.89 28.6827 78.4767 27.5094 77.65C26.336 76.8233 25.4294 75.65 24.7894 74.13C24.176 72.5833 23.8694 70.7967 23.8694 68.77C23.8694 65.8367 24.5094 63.17 25.7894 60.77C27.0694 58.3433 28.8294 56.4367 31.0694 55.05C33.3094 53.6633 35.776 52.97 38.4694 52.97C40.736 52.97 42.5227 53.4633 43.8294 54.45C45.1627 55.4367 45.8294 56.7833 45.8294 58.49C45.8294 59.6367 45.5494 60.5567 44.9894 61.25C44.4294 61.9433 43.696 62.29 42.7894 62.29C42.2827 62.29 41.8027 62.1833 41.3494 61.97C40.9227 61.7567 40.5627 61.45 40.2694 61.05C40.7494 60.73 41.1494 60.2233 41.4694 59.53C41.816 58.81 41.9894 58.09 41.9894 57.37C41.9894 56.57 41.7494 55.9567 41.2694 55.53C40.816 55.0767 40.1627 54.85 39.3094 54.85C37.7627 54.85 36.2694 55.5433 34.8294 56.93C33.3894 58.29 32.2294 60.0767 31.3494 62.29C30.4694 64.5033 30.0294 66.8233 30.0294 69.25C30.0294 71.25 30.3494 72.7833 30.9894 73.85C31.6294 74.89 32.5494 75.41 33.7494 75.41C35.1894 75.41 36.456 74.65 37.5494 73.13C38.6694 71.61 39.5627 69.3967 40.2294 66.49L44.9494 66.53L42.0294 79.97C41.176 83.9433 39.9627 86.8633 38.3894 88.73C36.8427 90.5967 34.8294 91.53 32.3494 91.53ZM59.4344 57.81L65.3544 57.01L62.5144 70.37C63.7944 70.2633 64.9677 69.7033 66.0344 68.69C67.1277 67.6767 67.981 66.4233 68.5944 64.93C69.2077 63.4367 69.5144 61.97 69.5144 60.53C69.5144 58.93 69.101 57.6233 68.2744 56.61C67.4477 55.5967 66.2077 55.09 64.5544 55.09C61.301 55.09 58.7544 55.9433 56.9144 57.65C55.101 59.3567 54.1944 61.7433 54.1944 64.81C54.1944 65.7967 54.2877 66.49 54.4744 66.89C54.661 67.2633 54.7544 67.4767 54.7544 67.53C53.3144 67.53 52.2344 67.2367 51.5144 66.65C50.821 66.0367 50.4744 65.0367 50.4744 63.65C50.4744 61.9433 51.1677 60.29 52.5544 58.69C53.9677 57.0633 55.7677 55.7567 57.9544 54.77C60.141 53.7567 62.3277 53.25 64.5144 53.25C66.621 53.25 68.381 53.61 69.7944 54.33C71.2077 55.05 72.2477 56.01 72.9144 57.21C73.6077 58.3833 73.9544 59.69 73.9544 61.13C73.9544 62.8633 73.4744 64.5567 72.5144 66.21C71.581 67.8633 70.2344 69.2233 68.4744 70.29C66.7144 71.33 64.6877 71.85 62.3944 71.85H62.1944L59.7544 83.25H53.9944L59.4344 57.81ZM83.8441 61.09C82.9641 61.09 82.2174 60.7833 81.6041 60.17C80.9907 59.5567 80.6841 58.81 80.6841 57.93C80.6841 57.05 80.9907 56.3033 81.6041 55.69C82.2174 55.05 82.9641 54.73 83.8441 54.73C84.7241 54.73 85.4707 55.05 86.0841 55.69C86.7241 56.3033 87.0441 57.05 87.0441 57.93C87.0441 58.81 86.7241 59.5567 86.0841 60.17C85.4707 60.7833 84.7241 61.09 83.8441 61.09ZM81.1241 83.49C79.8441 83.49 78.8041 83.09 78.0041 82.29C77.2307 81.49 76.8441 80.29 76.8441 78.69C76.8441 78.0233 76.9507 77.1567 77.1641 76.09L79.8841 63.25H85.6441L82.7641 76.85C82.6574 77.25 82.6041 77.6767 82.6041 78.13C82.6041 78.6633 82.7241 79.05 82.9641 79.29C83.2307 79.5033 83.6574 79.61 84.2441 79.61C85.0174 79.61 85.7374 79.29 86.4041 78.65C87.0707 77.9833 87.5507 77.13 87.8441 76.09H89.5241C88.5374 78.97 87.2707 80.93 85.7241 81.97C84.1774 82.9833 82.6441 83.49 81.1241 83.49ZM88.2281 93.25C86.9748 93.25 85.8815 92.8367 84.9481 92.01C83.9881 91.21 83.5081 90.1833 83.5081 88.93C83.5081 87.7833 83.8015 86.8367 84.3881 86.09C84.9748 85.3433 85.7348 84.7433 86.6681 84.29C87.6015 83.8633 88.8415 83.41 90.3881 82.93L95.2281 60.09C95.7615 57.53 96.6948 55.7567 98.0281 54.77C99.3881 53.7833 100.881 53.29 102.508 53.29C103.761 53.29 104.855 53.7033 105.788 54.53C106.748 55.33 107.228 56.3567 107.228 57.61C107.228 58.2233 107.188 58.77 107.108 59.25H105.228C105.281 58.6633 105.308 58.3033 105.308 58.17C105.308 57.7433 105.161 57.41 104.868 57.17C104.575 56.93 104.215 56.81 103.788 56.81C103.228 56.81 102.681 57.0633 102.148 57.57C101.615 58.05 101.228 58.89 100.988 60.09L100.308 63.25H103.228L102.948 64.85H99.9881L95.3881 86.45C94.8548 89.0367 93.9348 90.81 92.6281 91.77C91.3215 92.7567 89.8548 93.25 88.2281 93.25ZM87.3081 89.69C88.3748 89.69 89.1348 88.65 89.5881 86.57L90.1081 84.25C88.6948 84.73 87.6148 85.2767 86.8681 85.89C86.0948 86.53 85.7081 87.3567 85.7081 88.37C85.7081 88.69 85.8681 88.9833 86.1881 89.25C86.5081 89.5433 86.8815 89.69 87.3081 89.69ZM112.732 93.25C111.479 93.25 110.372 92.8367 109.412 92.01C108.479 91.21 108.012 90.1833 108.012 88.93C108.012 87.7567 108.306 86.7967 108.892 86.05C109.479 85.3033 110.239 84.7167 111.172 84.29C112.106 83.8633 113.359 83.41 114.932 82.93L115.332 81.17C113.972 82.7167 112.346 83.49 110.452 83.49C109.172 83.49 108.132 83.09 107.332 82.29C106.559 81.49 106.172 80.29 106.172 78.69C106.172 78.0233 106.279 77.1567 106.492 76.09L109.212 63.25H114.972L112.092 76.85C112.012 77.17 111.972 77.5033 111.972 77.85C111.972 79.0233 112.372 79.61 113.172 79.61C113.919 79.61 114.559 79.3033 115.092 78.69C115.626 78.05 116.052 77.1833 116.372 76.09L119.092 63.25H124.892L120.012 86.45C119.479 89.01 118.532 90.7833 117.172 91.77C115.839 92.7567 114.359 93.25 112.732 93.25ZM111.812 89.69C112.292 89.69 112.746 89.4367 113.172 88.93C113.599 88.45 113.932 87.6633 114.172 86.57L114.652 84.21C113.239 84.69 112.146 85.25 111.372 85.89C110.599 86.53 110.212 87.3567 110.212 88.37C110.212 88.69 110.372 88.9833 110.692 89.25C111.012 89.5433 111.386 89.69 111.812 89.69Z" fill="#FB5607"/>
<path d="M4 156.125C4 150.323 6.30468 144.759 10.407 140.657C14.5094 136.555 20.0734 134.25 25.875 134.25H144" stroke="#FB5607" stroke-width="7" stroke-linecap="round" stroke-linejoin="round"/>
<path d="M25.875 3H144V178H25.875C20.0734 178 14.5094 175.695 10.407 171.593C6.30468 167.491 4 161.927 4 156.125V24.875C4 19.0734 6.30468 13.5094 10.407 9.40704C14.5094 5.30468 20.0734 3 25.875 3V3Z" stroke="#FB5607" stroke-width="6" stroke-linecap="round" stroke-linejoin="round"/>
</svg>
